<?xml version="1.0" encoding="utf-8"?>
<!-- Generator: Adobe Illustrator 19.0.0, SVG Export Plug-In . SVG Version: 6.00 Build 0)  -->
<svg version="1.1" id="Layer_1" xmlns="http://www.w3.org/2000/svg" xmlns:xlink="http://www.w3.org/1999/xlink" x="0px" y="0px"
	 viewBox="0 0 528.7 254.5" style="enable-background:new 0 0 528.7 254.5;" xml:space="preserve">
<style type="text/css">
	.st0{fill:#FCAF21;}
	.st1{fill:#FFFFFF;stroke:#4F6067;stroke-miterlimit:10;}
	.st2{fill:#0B899B;}
</style>
<g id="XMLID_6_">
	<path id="XMLID_29_" class="st0" d="M53.4,46.4c0,9.6,6.2,17,17,17c10.6,0,17.3-7.4,17.3-17c0-9.8-6.5-17.3-17.3-17.3
		C59.9,29.1,53.4,36.5,53.4,46.4z"/>
</g>
<g id="XMLID_1_">
	<g id="XMLID_5_">
		<polygon id="XMLID_41_" class="st1" points="100.8,194.5 100.8,203.5 46.4,203.5 46.4,194.5 65.2,194.5 65.2,104.4 48.6,104.4 
			48.6,94.7 82,94.7 82,194.5 		"/>
	</g>
	<g id="XMLID_7_">
		<path id="XMLID_20_" class="st1" d="M201.8,172.7c0,10.4-3.6,18.7-10.8,24.4c-7.5,6-18.8,9.2-32.7,9.2c-13.4,0-26.4-3-32-4.5V178
			h10.8l-0.6,10.8l-0.1,2.7l2.1,1.6c4.9,3.6,12.9,5.8,21.5,5.8c21.8,0,26.4-10.9,26.4-20.1c0-16.5-15.2-20.9-28.6-24.8
			c-16-4.7-31.2-9.1-31.2-30c0-8.7,3.6-16.6,10.1-22.3c7.3-6.4,18-9.7,30.7-9.7c14.4,0,25.7,3.3,28.1,4v23.6h-10.5l1-10.3l0.3-3.3
			l-3-1.6c-5.3-2.8-11.9-4.4-18.2-4.4c-21,0-24.2,11.5-24.2,18.4c0,14.7,14.2,19,27.8,23.2C185.8,146.8,201.8,151.7,201.8,172.7z"/>
	</g>
	<g id="XMLID_9_">
		<polygon id="XMLID_19_" class="st1" points="277.2,194.5 277.2,203.5 222.8,203.5 222.8,194.5 241.6,194.5 241.6,44.1 225,44.1 
			225,34.5 258.4,34.5 258.4,194.5 		"/>
	</g>
	<g id="XMLID_11_">
		<path id="XMLID_23_" class="st1" d="M389.7,143c0-9.9-1.5-23.9-8.8-34.9c-7-10.6-18.1-16-33-16c-36.9,0-50,30.7-50,56.9
			c0,38.1,16.9,57.4,50.2,57.4c16.1,0,29.4-3.9,36.7-7.7l-3.5-8.5c-8.5,3.7-16.7,6.1-27.8,6.1c-32.2,0-37.6-23.3-38.8-40.9l-0.4-5.3
			h75.3C389.7,147.5,389.7,144.9,389.7,143z M374.5,137.3l-0.1,4.9h-60l0.2-5.2c0.8-21.8,12.6-34.8,31.4-34.8c8.4,0,15.1,2.5,20,7.5
			C371.9,115.6,374.7,124.9,374.5,137.3z"/>
	</g>
	<g id="XMLID_14_">
		<path id="XMLID_16_" class="st1" d="M481.8,201.5c-6.1,2.8-16.4,4.9-24.4,4.9c-17.8,0-23.3-6.6-25.8-11.5
			c-3.8-7.4-3.8-17.7-3.8-27.6v-62.8h-17.3v-9.7h17.3v-36h16.9v36h27.8v9.7h-27.8v65.5c0,9.2,0,26.4,19.4,26.4
			c5.8,0,10.1-1.1,14.5-2.9L481.8,201.5z"/>
	</g>
</g>
<g id="XMLID_4_">
	<path id="XMLID_115_" class="st2" d="M487.2,239.5c0,6.1-4.9,11-11,11H52.9v0c-0.2,0-0.3,0-0.5,0c-6.1,0-11-4.9-11-11s4.9-11,11-11
		c0.2,0,0.3,0,0.5,0v0h423.4C482.3,228.5,487.2,233.4,487.2,239.5z"/>
</g>
</svg>
